<svg width="870" height="162" viewBox="0 0 870 162" fill="none" xmlns="http://www.w3.org/2000/svg">
<path d="M86.9614 51.7217L99.0021 39.681L142.711 82.2916L130.152 94.8504L86.9614 51.7217Z" fill="#4654A3"/>
<path d="M99.1294 120.822C91.1103 128.902 80.8734 134.419 69.7155 136.676C58.5576 138.933 46.981 137.827 36.4524 133.498C25.9237 129.169 16.9169 121.812 10.5731 112.36C4.22922 102.908 0.833857 91.7852 0.81716 80.4014C0.800457 69.0177 4.16318 57.8851 10.4793 48.4142C16.7954 38.9434 25.7806 31.5604 36.2965 27.2008C46.8124 22.8412 58.3857 21.7011 69.5501 23.925C80.7146 26.1489 90.9677 31.6367 99.0104 39.6931L86.9636 51.7193C81.3019 46.0479 74.0841 42.1847 66.2247 40.6192C58.3654 39.0536 50.2182 39.8562 42.8154 42.9252C35.4126 45.9942 29.0874 51.1915 24.6411 57.8587C20.1948 64.5258 17.8275 72.3627 17.8393 80.3765C17.8511 88.3902 20.2413 96.2201 24.7071 102.874C29.1729 109.528 35.5134 114.707 42.9252 117.754C50.3369 120.802 58.4864 121.58 66.3412 119.992C74.1959 118.403 81.4023 114.519 87.0474 108.831L99.1294 120.822Z" fill="#4654A3"/>
<path d="M128.653 109.815L116.712 121.954L72.6538 79.705L85.1086 67.0432L128.653 109.815Z" fill="#4654A3"/>
<path d="M115.916 40.8172C123.869 32.6715 134.06 27.0694 145.199 24.7209C156.338 22.3724 167.923 23.3831 178.487 27.625C189.051 31.8668 198.118 39.1489 204.539 48.5486C210.961 57.9483 214.448 69.0426 214.558 80.4258C214.669 91.8091 211.398 102.969 205.16 112.492C198.922 122.014 189.998 129.471 179.519 133.917C169.039 138.363 157.475 139.599 146.293 137.467C135.111 135.335 124.813 129.932 116.704 121.942L128.651 109.817C134.359 115.441 141.609 119.245 149.481 120.746C157.353 122.246 165.493 121.377 172.87 118.247C180.248 115.117 186.53 109.868 190.921 103.164C195.312 96.4606 197.615 88.6045 197.537 80.5911C197.459 72.5777 195.005 64.7677 190.484 58.1507C185.964 51.5337 179.581 46.4073 172.144 43.4212C164.707 40.4351 156.552 39.7237 148.71 41.3769C140.869 43.0302 133.695 46.9738 128.097 52.7081L115.916 40.8172Z" fill="#4654A3"/>
<rect x="266" width="5" height="162" fill="#CACF82"/>
<path d="M358.08 133.4C350.427 133.4 343.38 132.14 336.94 129.62C330.5 127.1 324.9 123.6 320.14 119.12C315.38 114.547 311.693 109.227 309.08 103.16C306.467 97 305.16 90.28 305.16 83C305.16 75.72 306.467 69.0467 309.08 62.98C311.693 56.82 315.38 51.5 320.14 47.02C324.9 42.4467 330.5 38.9 336.94 36.38C343.38 33.86 350.38 32.6 357.94 32.6C365.593 32.6 372.593 33.86 378.94 36.38C385.38 38.9 390.98 42.4467 395.74 47.02C400.5 51.5 404.187 56.82 406.8 62.98C409.413 69.0467 410.72 75.72 410.72 83C410.72 90.28 409.413 97 406.8 103.16C404.187 109.32 400.5 114.64 395.74 119.12C390.98 123.6 385.38 127.1 378.94 129.62C372.593 132.14 365.64 133.4 358.08 133.4ZM357.94 117.44C362.887 117.44 367.46 116.6 371.66 114.92C375.86 113.24 379.5 110.86 382.58 107.78C385.66 104.607 388.04 100.967 389.72 96.86C391.493 92.66 392.38 88.04 392.38 83C392.38 77.96 391.493 73.3867 389.72 69.28C388.04 65.08 385.66 61.44 382.58 58.36C379.5 55.1867 375.86 52.76 371.66 51.08C367.46 49.4 362.887 48.56 357.94 48.56C352.993 48.56 348.42 49.4 344.22 51.08C340.113 52.76 336.473 55.1867 333.3 58.36C330.22 61.44 327.793 65.08 326.02 69.28C324.34 73.3867 323.5 77.96 323.5 83C323.5 87.9467 324.34 92.52 326.02 96.72C327.793 100.92 330.22 104.607 333.3 107.78C336.38 110.86 340.02 113.24 344.22 114.92C348.42 116.6 352.993 117.44 357.94 117.44ZM470.752 56.4C476.725 56.4 482.045 57.5667 486.712 59.9C491.472 62.2333 495.205 65.8267 497.912 70.68C500.618 75.44 501.972 81.6 501.972 89.16V132H484.472V91.4C484.472 84.7733 482.885 79.8267 479.712 76.56C476.632 73.2933 472.292 71.66 466.692 71.66C462.585 71.66 458.945 72.5 455.772 74.18C452.598 75.86 450.125 78.38 448.352 81.74C446.672 85.0067 445.832 89.16 445.832 94.2V132H428.332V57.24H444.992V77.4L442.052 71.24C444.665 66.48 448.445 62.84 453.392 60.32C458.432 57.7067 464.218 56.4 470.752 56.4ZM524.171 132V28.12H541.671V132H524.171ZM564.64 132V57.24H582.14V132H564.64ZM573.46 44.92C570.193 44.92 567.487 43.8933 565.34 41.84C563.287 39.7867 562.26 37.3133 562.26 34.42C562.26 31.4333 563.287 28.96 565.34 27C567.487 24.9467 570.193 23.92 573.46 23.92C576.727 23.92 579.387 24.9 581.44 26.86C583.587 28.7267 584.66 31.1067 584.66 34C584.66 37.08 583.633 39.6933 581.58 41.84C579.527 43.8933 576.82 44.92 573.46 44.92ZM647.529 56.4C653.502 56.4 658.822 57.5667 663.489 59.9C668.249 62.2333 671.982 65.8267 674.689 70.68C677.396 75.44 678.749 81.6 678.749 89.16V132H661.249V91.4C661.249 84.7733 659.662 79.8267 656.489 76.56C653.409 73.2933 649.069 71.66 643.469 71.66C639.362 71.66 635.722 72.5 632.549 74.18C629.376 75.86 626.902 78.38 625.129 81.74C623.449 85.0067 622.609 89.16 622.609 94.2V132H605.109V57.24H621.769V77.4L618.829 71.24C621.442 66.48 625.222 62.84 630.169 60.32C635.209 57.7067 640.996 56.4 647.529 56.4ZM700.949 132V57.24H718.449V132H700.949ZM709.769 44.92C706.502 44.92 703.795 43.8933 701.649 41.84C699.595 39.7867 698.569 37.3133 698.569 34.42C698.569 31.4333 699.595 28.96 701.649 27C703.795 24.9467 706.502 23.92 709.769 23.92C713.035 23.92 715.695 24.9 717.749 26.86C719.895 28.7267 720.969 31.1067 720.969 34C720.969 37.08 719.942 39.6933 717.889 41.84C715.835 43.8933 713.129 44.92 709.769 44.92ZM769.558 132.98C761.344 132.98 754.998 130.88 750.517 126.68C746.038 122.387 743.798 116.087 743.798 107.78V40.72H761.298V107.36C761.298 110.907 762.184 113.66 763.958 115.62C765.824 117.58 768.391 118.56 771.658 118.56C775.578 118.56 778.844 117.533 781.458 115.48L786.358 127.94C784.304 129.62 781.784 130.88 778.798 131.72C775.811 132.56 772.731 132.98 769.558 132.98ZM731.478 71.8V57.8H781.318V71.8H731.478ZM805.546 160.14C801.906 160.14 798.266 159.533 794.626 158.32C790.986 157.107 787.953 155.427 785.526 153.28L792.526 140.4C794.3 141.987 796.306 143.247 798.546 144.18C800.786 145.113 803.073 145.58 805.406 145.58C808.58 145.58 811.146 144.787 813.106 143.2C815.066 141.613 816.886 138.953 818.566 135.22L822.906 125.42L824.306 123.32L852.586 57.24H869.386L834.386 138.02C832.053 143.62 829.44 148.053 826.546 151.32C823.746 154.587 820.573 156.873 817.026 158.18C813.573 159.487 809.746 160.14 805.546 160.14ZM820.946 134.66L787.206 57.24H805.406L832.846 121.78L820.946 134.66Z" fill="#4654A3"/>
</svg>
